<?xml version='1.0' encoding='utf-8' standalone='no'?>
<!DOCTYPE svg PUBLIC "-//W3C//DTD SVG 1.1//EN" "http://www.w3.org/Graphics/SVG/1.1/DTD/svg11.dtd">
<svg xmlns:xlink="http://www.w3.org/1999/xlink" xmlns="http://www.w3.org/2000/svg" width="445.34685pt" height="175.245512pt" viewBox="0 0 445.34685 175.245512" version="1.1">
 <metadata>
  <rdf:RDF xmlns:dc="http://purl.org/dc/elements/1.1/" xmlns:cc="http://creativecommons.org/ns#" xmlns:rdf="http://www.w3.org/1999/02/22-rdf-syntax-ns#">
   <cc:Work>
    <dc:type rdf:resource="http://purl.org/dc/dcmitype/StillImage"/>
    <dc:date>2026-01-01T00:00:00</dc:date>
    <dc:format>image/svg+xml</dc:format>
    <dc:creator>
     <cc:Agent>
      <dc:title>Matplotlib v3.10.7, https://matplotlib.org/</dc:title>
     </cc:Agent>
    </dc:creator>
   </cc:Work>
  </rdf:RDF>
 </metadata>
 <defs>
  <style type="text/css">*{stroke-linejoin: round; stroke-linecap: butt}</style>
 </defs>
 <g id="figure_1">
  <g id="patch_1">
   <path d="M 0 175.245512  L 445.34685 175.245512  L 445.34685 0  L 0 0  L 0 175.245512  z " style="fill: none"/>
  </g>
  <g id="axes_1">
   <g id="text_1">
    <!-- A -->
    <g transform="translate(5.669291 12.533198) scale(0.09 -0.09)">
     <defs>
      <path id="Arial-BoldMT-41" d="M 4597 0  L 3591 0  L 3191 1041  L 1359 1041  L 981 0  L 0 0  L 1784 4581  L 2763 4581  L 4597 0  z M 2894 1813  L 2263 3513  L 1644 1813  L 2894 1813  z " transform="scale(0.015625)"/>
     </defs>
     <use xlink:href="#Arial-BoldMT-41"/>
    </g>
   </g>
  </g>
  <g id="axes_2">
   <g id="patch_2">
    <path d="M 227.198425 158.87622  L 434.127559 158.87622  L 434.127559 17.143937  L 227.198425 17.143937  L 227.198425 158.87622  z " style="fill: none"/>
   </g>
   <g id="matplotlib.axis_1">
    <g id="xtick_1">
     <g id="line2d_1"/>
     <g id="text_2">
      <!-- 0.0 -->
      <g transform="translate(221.638425 168.10247) scale(0.08 -0.08)">
       <defs>
        <path id="ArialMT-30" d="M 266 2259  Q 266 3072 433 3567  Q 600 4063 929 4331  Q 1259 4600 1759 4600  Q 2128 4600 2406 4451  Q 2684 4303 2865 4023  Q 3047 3744 3150 3342  Q 3253 2941 3253 2259  Q 3253 1453 3087 958  Q 2922 463 2592 192  Q 2263 -78 1759 -78  Q 1097 -78 719 397  Q 266 969 266 2259  z M 844 2259  Q 844 1131 1108 757  Q 1372 384 1759 384  Q 2147 384 2411 759  Q 2675 1134 2675 2259  Q 2675 3391 2411 3762  Q 2147 4134 1753 4134  Q 1366 4134 1134 3806  Q 844 3388 844 2259  z " transform="scale(0.015625)"/>
        <path id="ArialMT-2e" d="M 581 0  L 581 641  L 1222 641  L 1222 0  L 581 0  z " transform="scale(0.015625)"/>
       </defs>
       <use xlink:href="#ArialMT-30"/>
       <use xlink:href="#ArialMT-2e" transform="translate(55.615234 0)"/>
       <use xlink:href="#ArialMT-30" transform="translate(83.398438 0)"/>
      </g>
     </g>
    </g>
    <g id="xtick_2">
     <g id="line2d_2"/>
     <g id="text_3">
      <!-- 0.2 -->
      <g transform="translate(263.024252 168.10247) scale(0.08 -0.08)">
       <defs>
        <path id="ArialMT-32" d="M 3222 541  L 3222 0  L 194 0  Q 188 203 259 391  Q 375 700 629 1000  Q 884 1300 1366 1694  Q 2113 2306 2375 2664  Q 2638 3022 2638 3341  Q 2638 3675 2398 3904  Q 2159 4134 1775 4134  Q 1369 4134 1125 3890  Q 881 3647 878 3216  L 300 3275  Q 359 3922 746 4261  Q 1134 4600 1788 4600  Q 2447 4600 2831 4234  Q 3216 3869 3216 3328  Q 3216 3053 3103 2787  Q 2991 2522 2730 2228  Q 2469 1934 1863 1422  Q 1356 997 1212 845  Q 1069 694 975 541  L 3222 541  z " transform="scale(0.015625)"/>
       </defs>
       <use xlink:href="#ArialMT-30"/>
       <use xlink:href="#ArialMT-2e" transform="translate(55.615234 0)"/>
       <use xlink:href="#ArialMT-32" transform="translate(83.398438 0)"/>
      </g>
     </g>
    </g>
    <g id="xtick_3">
     <g id="line2d_3"/>
     <g id="text_4">
      <!-- 0.4 -->
      <g transform="translate(304.410079 168.10247) scale(0.08 -0.08)">
       <defs>
        <path id="ArialMT-34" d="M 2069 0  L 2069 1097  L 81 1097  L 81 1613  L 2172 4581  L 2631 4581  L 2631 1613  L 3250 1613  L 3250 1097  L 2631 1097  L 2631 0  L 2069 0  z M 2069 1613  L 2069 3678  L 634 1613  L 2069 1613  z " transform="scale(0.015625)"/>
       </defs>
       <use xlink:href="#ArialMT-30"/>
       <use xlink:href="#ArialMT-2e" transform="translate(55.615234 0)"/>
       <use xlink:href="#ArialMT-34" transform="translate(83.398438 0)"/>
      </g>
     </g>
    </g>
    <g id="xtick_4">
     <g id="line2d_4"/>
     <g id="text_5">
      <!-- 0.6 -->
      <g transform="translate(345.795906 168.10247) scale(0.08 -0.08)">
       <defs>
        <path id="ArialMT-36" d="M 3184 3459  L 2625 3416  Q 2550 3747 2413 3897  Q 2184 4138 1850 4138  Q 1581 4138 1378 3988  Q 1113 3794 959 3422  Q 806 3050 800 2363  Q 1003 2672 1297 2822  Q 1591 2972 1913 2972  Q 2475 2972 2870 2558  Q 3266 2144 3266 1488  Q 3266 1056 3080 686  Q 2894 316 2569 119  Q 2244 -78 1831 -78  Q 1128 -78 684 439  Q 241 956 241 2144  Q 241 3472 731 4075  Q 1159 4600 1884 4600  Q 2425 4600 2770 4297  Q 3116 3994 3184 3459  z M 888 1484  Q 888 1194 1011 928  Q 1134 663 1356 523  Q 1578 384 1822 384  Q 2178 384 2434 671  Q 2691 959 2691 1453  Q 2691 1928 2437 2201  Q 2184 2475 1800 2475  Q 1419 2475 1153 2201  Q 888 1928 888 1484  z " transform="scale(0.015625)"/>
       </defs>
       <use xlink:href="#ArialMT-30"/>
       <use xlink:href="#ArialMT-2e" transform="translate(55.615234 0)"/>
       <use xlink:href="#ArialMT-36" transform="translate(83.398438 0)"/>
      </g>
     </g>
    </g>
    <g id="xtick_5">
     <g id="line2d_5"/>
     <g id="text_6">
      <!-- 0.8 -->
      <g transform="translate(387.181732 168.10247) scale(0.08 -0.08)">
       <defs>
        <path id="ArialMT-38" d="M 1131 2484  Q 781 2613 612 2850  Q 444 3088 444 3419  Q 444 3919 803 4259  Q 1163 4600 1759 4600  Q 2359 4600 2725 4251  Q 3091 3903 3091 3403  Q 3091 3084 2923 2848  Q 2756 2613 2416 2484  Q 2838 2347 3058 2040  Q 3278 1734 3278 1309  Q 3278 722 2862 322  Q 2447 -78 1769 -78  Q 1091 -78 675 323  Q 259 725 259 1325  Q 259 1772 486 2073  Q 713 2375 1131 2484  z M 1019 3438  Q 1019 3113 1228 2906  Q 1438 2700 1772 2700  Q 2097 2700 2305 2904  Q 2513 3109 2513 3406  Q 2513 3716 2298 3927  Q 2084 4138 1766 4138  Q 1444 4138 1231 3931  Q 1019 3725 1019 3438  z M 838 1322  Q 838 1081 952 856  Q 1066 631 1291 507  Q 1516 384 1775 384  Q 2178 384 2440 643  Q 2703 903 2703 1303  Q 2703 1709 2433 1975  Q 2163 2241 1756 2241  Q 1359 2241 1098 1978  Q 838 1716 838 1322  z " transform="scale(0.015625)"/>
       </defs>
       <use xlink:href="#ArialMT-30"/>
       <use xlink:href="#ArialMT-2e" transform="translate(55.615234 0)"/>
       <use xlink:href="#ArialMT-38" transform="translate(83.398438 0)"/>
      </g>
     </g>
    </g>
    <g id="xtick_6">
     <g id="line2d_6"/>
     <g id="text_7">
      <!-- 1.0 -->
      <g transform="translate(428.567559 168.10247) scale(0.08 -0.08)">
       <defs>
        <path id="ArialMT-31" d="M 2384 0  L 1822 0  L 1822 3584  Q 1619 3391 1289 3197  Q 959 3003 697 2906  L 697 3450  Q 1169 3672 1522 3987  Q 1875 4303 2022 4600  L 2384 4600  L 2384 0  z " transform="scale(0.015625)"/>
       </defs>
       <use xlink:href="#ArialMT-31"/>
       <use xlink:href="#ArialMT-2e" transform="translate(55.615234 0)"/>
       <use xlink:href="#ArialMT-30" transform="translate(83.398438 0)"/>
      </g>
     </g>
    </g>
   </g>
   <g id="matplotlib.axis_2">
    <g id="ytick_1">
     <g id="line2d_7"/>
     <g id="text_8">
      <!-- 0.0 -->
      <g transform="translate(212.578425 161.739345) scale(0.08 -0.08)">
       <use xlink:href="#ArialMT-30"/>
       <use xlink:href="#ArialMT-2e" transform="translate(55.615234 0)"/>
       <use xlink:href="#ArialMT-30" transform="translate(83.398438 0)"/>
      </g>
     </g>
    </g>
    <g id="ytick_2">
     <g id="line2d_8"/>
     <g id="text_9">
      <!-- 0.2 -->
      <g transform="translate(212.578425 133.392889) scale(0.08 -0.08)">
       <use xlink:href="#ArialMT-30"/>
       <use xlink:href="#ArialMT-2e" transform="translate(55.615234 0)"/>
       <use xlink:href="#ArialMT-32" transform="translate(83.398438 0)"/>
      </g>
     </g>
    </g>
    <g id="ytick_3">
     <g id="line2d_9"/>
     <g id="text_10">
      <!-- 0.4 -->
      <g transform="translate(212.578425 105.046432) scale(0.08 -0.08)">
       <use xlink:href="#ArialMT-30"/>
       <use xlink:href="#ArialMT-2e" transform="translate(55.615234 0)"/>
       <use xlink:href="#ArialMT-34" transform="translate(83.398438 0)"/>
      </g>
     </g>
    </g>
    <g id="ytick_4">
     <g id="line2d_10"/>
     <g id="text_11">
      <!-- 0.6 -->
      <g transform="translate(212.578425 76.699975) scale(0.08 -0.08)">
       <use xlink:href="#ArialMT-30"/>
       <use xlink:href="#ArialMT-2e" transform="translate(55.615234 0)"/>
       <use xlink:href="#ArialMT-36" transform="translate(83.398438 0)"/>
      </g>
     </g>
    </g>
    <g id="ytick_5">
     <g id="line2d_11"/>
     <g id="text_12">
      <!-- 0.8 -->
      <g transform="translate(212.578425 48.353519) scale(0.08 -0.08)">
       <use xlink:href="#ArialMT-30"/>
       <use xlink:href="#ArialMT-2e" transform="translate(55.615234 0)"/>
       <use xlink:href="#ArialMT-38" transform="translate(83.398438 0)"/>
      </g>
     </g>
    </g>
    <g id="ytick_6">
     <g id="line2d_12"/>
     <g id="text_13">
      <!-- 1.0 -->
      <g transform="translate(212.578425 20.007062) scale(0.08 -0.08)">
       <use xlink:href="#ArialMT-31"/>
       <use xlink:href="#ArialMT-2e" transform="translate(55.615234 0)"/>
       <use xlink:href="#ArialMT-30" transform="translate(83.398438 0)"/>
      </g>
     </g>
    </g>
   </g>
   <g id="patch_3">
    <path d="M 227.198425 158.87622  L 227.198425 17.143937  " style="fill: none; stroke: #4c4c4c; stroke-width: 0.75; stroke-linejoin: miter; stroke-linecap: square"/>
   </g>
   <g id="patch_4">
    <path d="M 434.127559 158.87622  L 434.127559 17.143937  " style="fill: none; stroke: #4c4c4c; stroke-width: 0.75; stroke-linejoin: miter; stroke-linecap: square"/>
   </g>
   <g id="patch_5">
    <path d="M 227.198425 158.87622  L 434.127559 158.87622  " style="fill: none; stroke: #4c4c4c; stroke-width: 0.75; stroke-linejoin: miter; stroke-linecap: square"/>
   </g>
   <g id="patch_6">
    <path d="M 227.198425 17.143937  L 434.127559 17.143937  " style="fill: none; stroke: #4c4c4c; stroke-width: 0.75; stroke-linejoin: miter; stroke-linecap: square"/>
   </g>
   <g id="text_14">
    <!-- B -->
    <g transform="translate(227.198425 12.533198) scale(0.09 -0.09)">
     <defs>
      <path id="Arial-BoldMT-42" d="M 469 4581  L 2300 4581  Q 2844 4581 3111 4536  Q 3378 4491 3589 4347  Q 3800 4203 3940 3964  Q 4081 3725 4081 3428  Q 4081 3106 3907 2837  Q 3734 2569 3438 2434  Q 3856 2313 4081 2019  Q 4306 1725 4306 1328  Q 4306 1016 4161 720  Q 4016 425 3764 248  Q 3513 72 3144 31  Q 2913 6 2028 0  L 469 0  L 469 4581  z M 1394 3819  L 1394 2759  L 2000 2759  Q 2541 2759 2672 2775  Q 2909 2803 3045 2939  Q 3181 3075 3181 3297  Q 3181 3509 3064 3642  Q 2947 3775 2716 3803  Q 2578 3819 1925 3819  L 1394 3819  z M 1394 1997  L 1394 772  L 2250 772  Q 2750 772 2884 800  Q 3091 838 3220 983  Q 3350 1128 3350 1372  Q 3350 1578 3250 1722  Q 3150 1866 2961 1931  Q 2772 1997 2141 1997  L 1394 1997  z " transform="scale(0.015625)"/>
     </defs>
     <use xlink:href="#Arial-BoldMT-42"/>
    </g>
   </g>
  </g>
 </g>
<g id="publiplots-panel-image-0-A" transform="translate(38.740157, 5.166772) scale(1.666667, 1.666667)"><svg width="40mm" height="30mm" viewBox="0 0 40 30">
  <rect x="2" y="2" width="36" height="26" fill="white" stroke="black" stroke-width="0.5"/>
  <circle cx="20" cy="15" r="10" fill="#1f77b4"/>
  <text x="3" y="29" font-size="3" font-family="sans-serif">PR5-svg-marker</text>
</svg></g></svg>