<?xml version="1.0" encoding="utf-8" standalone="no"?>
<!DOCTYPE svg PUBLIC "-//W3C//DTD SVG 1.1//EN"
  "http://www.w3.org/Graphics/SVG/1.1/DTD/svg11.dtd">
<svg xmlns:xlink="http://www.w3.org/1999/xlink" width="493.228346pt" height="226.771654pt" viewBox="0 0 493.228346 226.771654" xmlns="http://www.w3.org/2000/svg" version="1.1">
 <metadata>
  <rdf:RDF xmlns:dc="http://purl.org/dc/elements/1.1/" xmlns:cc="http://creativecommons.org/ns#" xmlns:rdf="http://www.w3.org/1999/02/22-rdf-syntax-ns#">
   <cc:Work>
    <dc:type rdf:resource="http://purl.org/dc/dcmitype/StillImage"/>
    <dc:format>image/svg+xml</dc:format>
    <dc:creator>
     <cc:Agent>
      <dc:title>Matplotlib v3.10.7, https://matplotlib.org/</dc:title>
     </cc:Agent>
    </dc:creator>
   </cc:Work>
  </rdf:RDF>
 </metadata>
 <defs>
  <style type="text/css">*{stroke-linejoin: round; stroke-linecap: butt}</style>
 </defs>
 <g id="figure_1">
  <g id="patch_1">
   <path d="M 0 226.771654 
L 493.228346 226.771654 
L 493.228346 0 
L 0 0 
L 0 226.771654 
z
" style="fill: none"/>
  </g>
  <g id="axes_1">
   <g id="patch_2">
    <path d="M 266.456693 212.598425 
L 479.055118 212.598425 
L 479.055118 14.173228 
L 266.456693 14.173228 
L 266.456693 212.598425 
z
" style="fill: none"/>
   </g>
   <g id="PathCollection_1">
    <defs>
     <path id="mdd052bf3d1" d="M 0 1.414214 
C 0.375054 1.414214 0.734797 1.265203 1 1 
C 1.265203 0.734797 1.414214 0.375054 1.414214 0 
C 1.414214 -0.375054 1.265203 -0.734797 1 -1 
C 0.734797 -1.265203 0.375054 -1.414214 0 -1.414214 
C -0.375054 -1.414214 -0.734797 -1.265203 -1 -1 
C -1.265203 -0.734797 -1.414214 -0.375054 -1.414214 0 
C -1.414214 0.375054 -1.265203 0.734797 -1 1 
C -0.734797 1.265203 -0.375054 1.414214 0 1.414214 
z
" style="stroke: #000000; stroke-opacity: 0.6; stroke-width: 0.4"/>
    </defs>
    <g clip-path="url(#pb96ee5767b)">
     <use xlink:href="#mdd052bf3d1" x="386.970322" y="121.877194" style="fill: #1f77b4; fill-opacity: 0.6; stroke: #000000; stroke-opacity: 0.6; stroke-width: 0.4"/>
     <use xlink:href="#mdd052bf3d1" x="375.64645" y="127.180567" style="fill: #1f77b4; fill-opacity: 0.6; stroke: #000000; stroke-opacity: 0.6; stroke-width: 0.4"/>
     <use xlink:href="#mdd052bf3d1" x="409.575126" y="125.64839" style="fill: #1f77b4; fill-opacity: 0.6; stroke: #000000; stroke-opacity: 0.6; stroke-width: 0.4"/>
     <use xlink:href="#mdd052bf3d1" x="386.055484" y="98.611027" style="fill: #1f77b4; fill-opacity: 0.6; stroke: #000000; stroke-opacity: 0.6; stroke-width: 0.4"/>
     <use xlink:href="#mdd052bf3d1" x="357.92228" y="112.60099" style="fill: #1f77b4; fill-opacity: 0.6; stroke: #000000; stroke-opacity: 0.6; stroke-width: 0.4"/>
     <use xlink:href="#mdd052bf3d1" x="397.329282" y="113.050472" style="fill: #1f77b4; fill-opacity: 0.6; stroke: #000000; stroke-opacity: 0.6; stroke-width: 0.4"/>
     <use xlink:href="#mdd052bf3d1" x="438.718815" y="79.626979" style="fill: #1f77b4; fill-opacity: 0.6; stroke: #000000; stroke-opacity: 0.6; stroke-width: 0.4"/>
     <use xlink:href="#mdd052bf3d1" x="423.043268" y="112.992279" style="fill: #1f77b4; fill-opacity: 0.6; stroke: #000000; stroke-opacity: 0.6; stroke-width: 0.4"/>
     <use xlink:href="#mdd052bf3d1" x="350.540986" y="138.418124" style="fill: #1f77b4; fill-opacity: 0.6; stroke: #000000; stroke-opacity: 0.6; stroke-width: 0.4"/>
     <use xlink:href="#mdd052bf3d1" x="325.87226" y="120.275634" style="fill: #1f77b4; fill-opacity: 0.6; stroke: #000000; stroke-opacity: 0.6; stroke-width: 0.4"/>
     <use xlink:href="#mdd052bf3d1" x="354.074747" y="126.131139" style="fill: #1f77b4; fill-opacity: 0.6; stroke: #000000; stroke-opacity: 0.6; stroke-width: 0.4"/>
     <use xlink:href="#mdd052bf3d1" x="383.263368" y="73.156169" style="fill: #1f77b4; fill-opacity: 0.6; stroke: #000000; stroke-opacity: 0.6; stroke-width: 0.4"/>
     <use xlink:href="#mdd052bf3d1" x="279.335224" y="182.523536" style="fill: #1f77b4; fill-opacity: 0.6; stroke: #000000; stroke-opacity: 0.6; stroke-width: 0.4"/>
     <use xlink:href="#mdd052bf3d1" x="371.839248" y="108.885599" style="fill: #1f77b4; fill-opacity: 0.6; stroke: #000000; stroke-opacity: 0.6; stroke-width: 0.4"/>
     <use xlink:href="#mdd052bf3d1" x="326.729143" y="146.654021" style="fill: #1f77b4; fill-opacity: 0.6; stroke: #000000; stroke-opacity: 0.6; stroke-width: 0.4"/>
     <use xlink:href="#mdd052bf3d1" x="349.287883" y="121.396823" style="fill: #1f77b4; fill-opacity: 0.6; stroke: #000000; stroke-opacity: 0.6; stroke-width: 0.4"/>
     <use xlink:href="#mdd052bf3d1" x="357.545032" y="126.682551" style="fill: #1f77b4; fill-opacity: 0.6; stroke: #000000; stroke-opacity: 0.6; stroke-width: 0.4"/>
     <use xlink:href="#mdd052bf3d1" x="367.556768" y="130.689179" style="fill: #1f77b4; fill-opacity: 0.6; stroke: #000000; stroke-opacity: 0.6; stroke-width: 0.4"/>
     <use xlink:href="#mdd052bf3d1" x="399.526793" y="118.530229" style="fill: #1f77b4; fill-opacity: 0.6; stroke: #000000; stroke-opacity: 0.6; stroke-width: 0.4"/>
     <use xlink:href="#mdd052bf3d1" x="427.234569" y="36.350344" style="fill: #1f77b4; fill-opacity: 0.6; stroke: #000000; stroke-opacity: 0.6; stroke-width: 0.4"/>
     <use xlink:href="#mdd052bf3d1" x="375.80325" y="117.949473" style="fill: #1f77b4; fill-opacity: 0.6; stroke: #000000; stroke-opacity: 0.6; stroke-width: 0.4"/>
     <use xlink:href="#mdd052bf3d1" x="441.46215" y="115.327543" style="fill: #1f77b4; fill-opacity: 0.6; stroke: #000000; stroke-opacity: 0.6; stroke-width: 0.4"/>
     <use xlink:href="#mdd052bf3d1" x="352.233651" y="140.513711" style="fill: #1f77b4; fill-opacity: 0.6; stroke: #000000; stroke-opacity: 0.6; stroke-width: 0.4"/>
     <use xlink:href="#mdd052bf3d1" x="396.886359" y="93.596109" style="fill: #1f77b4; fill-opacity: 0.6; stroke: #000000; stroke-opacity: 0.6; stroke-width: 0.4"/>
     <use xlink:href="#mdd052bf3d1" x="421.127924" y="100.510911" style="fill: #1f77b4; fill-opacity: 0.6; stroke: #000000; stroke-opacity: 0.6; stroke-width: 0.4"/>
     <use xlink:href="#mdd052bf3d1" x="385.577301" y="88.10408" style="fill: #1f77b4; fill-opacity: 0.6; stroke: #000000; stroke-opacity: 0.6; stroke-width: 0.4"/>
     <use xlink:href="#mdd052bf3d1" x="348.794589" y="114.216696" style="fill: #1f77b4; fill-opacity: 0.6; stroke: #000000; stroke-opacity: 0.6; stroke-width: 0.4"/>
     <use xlink:href="#mdd052bf3d1" x="340.967066" y="138.174354" style="fill: #1f77b4; fill-opacity: 0.6; stroke: #000000; stroke-opacity: 0.6; stroke-width: 0.4"/>
     <use xlink:href="#mdd052bf3d1" x="361.345486" y="132.549039" style="fill: #1f77b4; fill-opacity: 0.6; stroke: #000000; stroke-opacity: 0.6; stroke-width: 0.4"/>
     <use xlink:href="#mdd052bf3d1" x="391.119131" y="125.443152" style="fill: #1f77b4; fill-opacity: 0.6; stroke: #000000; stroke-opacity: 0.6; stroke-width: 0.4"/>
     <use xlink:href="#mdd052bf3d1" x="337.106897" y="149.61664" style="fill: #1f77b4; fill-opacity: 0.6; stroke: #000000; stroke-opacity: 0.6; stroke-width: 0.4"/>
     <use xlink:href="#mdd052bf3d1" x="372.261578" y="143.68899" style="fill: #1f77b4; fill-opacity: 0.6; stroke: #000000; stroke-opacity: 0.6; stroke-width: 0.4"/>
     <use xlink:href="#mdd052bf3d1" x="374.455359" y="96.815009" style="fill: #1f77b4; fill-opacity: 0.6; stroke: #000000; stroke-opacity: 0.6; stroke-width: 0.4"/>
     <use xlink:href="#mdd052bf3d1" x="405.201795" y="73.503104" style="fill: #1f77b4; fill-opacity: 0.6; stroke: #000000; stroke-opacity: 0.6; stroke-width: 0.4"/>
     <use xlink:href="#mdd052bf3d1" x="390.875995" y="129.863385" style="fill: #1f77b4; fill-opacity: 0.6; stroke: #000000; stroke-opacity: 0.6; stroke-width: 0.4"/>
     <use xlink:href="#mdd052bf3d1" x="397.056003" y="125.232167" style="fill: #1f77b4; fill-opacity: 0.6; stroke: #000000; stroke-opacity: 0.6; stroke-width: 0.4"/>
     <use xlink:href="#mdd052bf3d1" x="352.732838" y="159.348789" style="fill: #1f77b4; fill-opacity: 0.6; stroke: #000000; stroke-opacity: 0.6; stroke-width: 0.4"/>
     <use xlink:href="#mdd052bf3d1" x="375.755863" y="133.099781" style="fill: #1f77b4; fill-opacity: 0.6; stroke: #000000; stroke-opacity: 0.6; stroke-width: 0.4"/>
     <use xlink:href="#mdd052bf3d1" x="415.879829" y="147.831044" style="fill: #1f77b4; fill-opacity: 0.6; stroke: #000000; stroke-opacity: 0.6; stroke-width: 0.4"/>
     <use xlink:href="#mdd052bf3d1" x="447.03845" y="97.377275" style="fill: #1f77b4; fill-opacity: 0.6; stroke: #000000; stroke-opacity: 0.6; stroke-width: 0.4"/>
     <use xlink:href="#mdd052bf3d1" x="326.151406" y="121.506351" style="fill: #1f77b4; fill-opacity: 0.6; stroke: #000000; stroke-opacity: 0.6; stroke-width: 0.4"/>
     <use xlink:href="#mdd052bf3d1" x="447.938467" y="83.297081" style="fill: #1f77b4; fill-opacity: 0.6; stroke: #000000; stroke-opacity: 0.6; stroke-width: 0.4"/>
     <use xlink:href="#mdd052bf3d1" x="440.557942" y="66.833616" style="fill: #1f77b4; fill-opacity: 0.6; stroke: #000000; stroke-opacity: 0.6; stroke-width: 0.4"/>
     <use xlink:href="#mdd052bf3d1" x="415.762826" y="103.240344" style="fill: #1f77b4; fill-opacity: 0.6; stroke: #000000; stroke-opacity: 0.6; stroke-width: 0.4"/>
     <use xlink:href="#mdd052bf3d1" x="393.063011" y="77.204942" style="fill: #1f77b4; fill-opacity: 0.6; stroke: #000000; stroke-opacity: 0.6; stroke-width: 0.4"/>
     <use xlink:href="#mdd052bf3d1" x="367.661178" y="117.659105" style="fill: #1f77b4; fill-opacity: 0.6; stroke: #000000; stroke-opacity: 0.6; stroke-width: 0.4"/>
     <use xlink:href="#mdd052bf3d1" x="445.483256" y="85.252145" style="fill: #1f77b4; fill-opacity: 0.6; stroke: #000000; stroke-opacity: 0.6; stroke-width: 0.4"/>
     <use xlink:href="#mdd052bf3d1" x="467.541056" y="23.192555" style="fill: #1f77b4; fill-opacity: 0.6; stroke: #000000; stroke-opacity: 0.6; stroke-width: 0.4"/>
     <use xlink:href="#mdd052bf3d1" x="460.574465" y="76.063375" style="fill: #1f77b4; fill-opacity: 0.6; stroke: #000000; stroke-opacity: 0.6; stroke-width: 0.4"/>
     <use xlink:href="#mdd052bf3d1" x="439.20648" y="102.983493" style="fill: #1f77b4; fill-opacity: 0.6; stroke: #000000; stroke-opacity: 0.6; stroke-width: 0.4"/>
     <use xlink:href="#mdd052bf3d1" x="397.144179" y="101.579039" style="fill: #1f77b4; fill-opacity: 0.6; stroke: #000000; stroke-opacity: 0.6; stroke-width: 0.4"/>
     <use xlink:href="#mdd052bf3d1" x="328.380162" y="143.0832" style="fill: #1f77b4; fill-opacity: 0.6; stroke: #000000; stroke-opacity: 0.6; stroke-width: 0.4"/>
     <use xlink:href="#mdd052bf3d1" x="381.252749" y="95.473904" style="fill: #1f77b4; fill-opacity: 0.6; stroke: #000000; stroke-opacity: 0.6; stroke-width: 0.4"/>
     <use xlink:href="#mdd052bf3d1" x="410.280127" y="113.603674" style="fill: #1f77b4; fill-opacity: 0.6; stroke: #000000; stroke-opacity: 0.6; stroke-width: 0.4"/>
     <use xlink:href="#mdd052bf3d1" x="324.864757" y="130.603377" style="fill: #1f77b4; fill-opacity: 0.6; stroke: #000000; stroke-opacity: 0.6; stroke-width: 0.4"/>
     <use xlink:href="#mdd052bf3d1" x="398.801756" y="89.573765" style="fill: #1f77b4; fill-opacity: 0.6; stroke: #000000; stroke-opacity: 0.6; stroke-width: 0.4"/>
     <use xlink:href="#mdd052bf3d1" x="400.327576" y="114.683776" style="fill: #1f77b4; fill-opacity: 0.6; stroke: #000000; stroke-opacity: 0.6; stroke-width: 0.4"/>
     <use xlink:href="#mdd052bf3d1" x="412.017907" y="94.149731" style="fill: #1f77b4; fill-opacity: 0.6; stroke: #000000; stroke-opacity: 0.6; stroke-width: 0.4"/>
     <use xlink:href="#mdd052bf3d1" x="329.443032" y="156.015884" style="fill: #1f77b4; fill-opacity: 0.6; stroke: #000000; stroke-opacity: 0.6; stroke-width: 0.4"/>
     <use xlink:href="#mdd052bf3d1" x="352.387021" y="89.343357" style="fill: #1f77b4; fill-opacity: 0.6; stroke: #000000; stroke-opacity: 0.6; stroke-width: 0.4"/>
     <use xlink:href="#mdd052bf3d1" x="362.280548" y="135.997309" style="fill: #1f77b4; fill-opacity: 0.6; stroke: #000000; stroke-opacity: 0.6; stroke-width: 0.4"/>
     <use xlink:href="#mdd052bf3d1" x="330.07178" y="149.230471" style="fill: #1f77b4; fill-opacity: 0.6; stroke: #000000; stroke-opacity: 0.6; stroke-width: 0.4"/>
     <use xlink:href="#mdd052bf3d1" x="457.839758" y="90.198912" style="fill: #1f77b4; fill-opacity: 0.6; stroke: #000000; stroke-opacity: 0.6; stroke-width: 0.4"/>
     <use xlink:href="#mdd052bf3d1" x="359.668442" y="131.309815" style="fill: #1f77b4; fill-opacity: 0.6; stroke: #000000; stroke-opacity: 0.6; stroke-width: 0.4"/>
     <use xlink:href="#mdd052bf3d1" x="395.896404" y="105.802625" style="fill: #1f77b4; fill-opacity: 0.6; stroke: #000000; stroke-opacity: 0.6; stroke-width: 0.4"/>
     <use xlink:href="#mdd052bf3d1" x="370.092109" y="106.636792" style="fill: #1f77b4; fill-opacity: 0.6; stroke: #000000; stroke-opacity: 0.6; stroke-width: 0.4"/>
     <use xlink:href="#mdd052bf3d1" x="450.992997" y="86.153829" style="fill: #1f77b4; fill-opacity: 0.6; stroke: #000000; stroke-opacity: 0.6; stroke-width: 0.4"/>
     <use xlink:href="#mdd052bf3d1" x="439.437373" y="85.192351" style="fill: #1f77b4; fill-opacity: 0.6; stroke: #000000; stroke-opacity: 0.6; stroke-width: 0.4"/>
     <use xlink:href="#mdd052bf3d1" x="409.264617" y="122.598571" style="fill: #1f77b4; fill-opacity: 0.6; stroke: #000000; stroke-opacity: 0.6; stroke-width: 0.4"/>
     <use xlink:href="#mdd052bf3d1" x="284.672306" y="180.307003" style="fill: #1f77b4; fill-opacity: 0.6; stroke: #000000; stroke-opacity: 0.6; stroke-width: 0.4"/>
     <use xlink:href="#mdd052bf3d1" x="383.733434" y="65.300904" style="fill: #1f77b4; fill-opacity: 0.6; stroke: #000000; stroke-opacity: 0.6; stroke-width: 0.4"/>
     <use xlink:href="#mdd052bf3d1" x="411.475219" y="79.465518" style="fill: #1f77b4; fill-opacity: 0.6; stroke: #000000; stroke-opacity: 0.6; stroke-width: 0.4"/>
     <use xlink:href="#mdd052bf3d1" x="425.54141" y="102.911834" style="fill: #1f77b4; fill-opacity: 0.6; stroke: #000000; stroke-opacity: 0.6; stroke-width: 0.4"/>
     <use xlink:href="#mdd052bf3d1" x="354.310479" y="151.135648" style="fill: #1f77b4; fill-opacity: 0.6; stroke: #000000; stroke-opacity: 0.6; stroke-width: 0.4"/>
     <use xlink:href="#mdd052bf3d1" x="461.469381" y="86.685141" style="fill: #1f77b4; fill-opacity: 0.6; stroke: #000000; stroke-opacity: 0.6; stroke-width: 0.4"/>
     <use xlink:href="#mdd052bf3d1" x="323.456295" y="145.46852" style="fill: #1f77b4; fill-opacity: 0.6; stroke: #000000; stroke-opacity: 0.6; stroke-width: 0.4"/>
     <use xlink:href="#mdd052bf3d1" x="352.394687" y="128.768018" style="fill: #1f77b4; fill-opacity: 0.6; stroke: #000000; stroke-opacity: 0.6; stroke-width: 0.4"/>
     <use xlink:href="#mdd052bf3d1" x="422.514879" y="103.925462" style="fill: #1f77b4; fill-opacity: 0.6; stroke: #000000; stroke-opacity: 0.6; stroke-width: 0.4"/>
     <use xlink:href="#mdd052bf3d1" x="383.602802" y="134.338133" style="fill: #1f77b4; fill-opacity: 0.6; stroke: #000000; stroke-opacity: 0.6; stroke-width: 0.4"/>
     <use xlink:href="#mdd052bf3d1" x="469.391553" y="41.465631" style="fill: #1f77b4; fill-opacity: 0.6; stroke: #000000; stroke-opacity: 0.6; stroke-width: 0.4"/>
     <use xlink:href="#mdd052bf3d1" x="389.727954" y="101.350941" style="fill: #1f77b4; fill-opacity: 0.6; stroke: #000000; stroke-opacity: 0.6; stroke-width: 0.4"/>
     <use xlink:href="#mdd052bf3d1" x="353.639087" y="135.074164" style="fill: #1f77b4; fill-opacity: 0.6; stroke: #000000; stroke-opacity: 0.6; stroke-width: 0.4"/>
     <use xlink:href="#mdd052bf3d1" x="364.866139" y="126.342635" style="fill: #1f77b4; fill-opacity: 0.6; stroke: #000000; stroke-opacity: 0.6; stroke-width: 0.4"/>
     <use xlink:href="#mdd052bf3d1" x="333.526268" y="148.65617" style="fill: #1f77b4; fill-opacity: 0.6; stroke: #000000; stroke-opacity: 0.6; stroke-width: 0.4"/>
     <use xlink:href="#mdd052bf3d1" x="325.333869" y="194.168572" style="fill: #1f77b4; fill-opacity: 0.6; stroke: #000000; stroke-opacity: 0.6; stroke-width: 0.4"/>
     <use xlink:href="#mdd052bf3d1" x="409.135445" y="96.529128" style="fill: #1f77b4; fill-opacity: 0.6; stroke: #000000; stroke-opacity: 0.6; stroke-width: 0.4"/>
     <use xlink:href="#mdd052bf3d1" x="406.972622" y="117.942968" style="fill: #1f77b4; fill-opacity: 0.6; stroke: #000000; stroke-opacity: 0.6; stroke-width: 0.4"/>
     <use xlink:href="#mdd052bf3d1" x="438.304166" y="99.745765" style="fill: #1f77b4; fill-opacity: 0.6; stroke: #000000; stroke-opacity: 0.6; stroke-width: 0.4"/>
     <use xlink:href="#mdd052bf3d1" x="348.3068" y="142.507047" style="fill: #1f77b4; fill-opacity: 0.6; stroke: #000000; stroke-opacity: 0.6; stroke-width: 0.4"/>
     <use xlink:href="#mdd052bf3d1" x="455.632368" y="60.721723" style="fill: #1f77b4; fill-opacity: 0.6; stroke: #000000; stroke-opacity: 0.6; stroke-width: 0.4"/>
     <use xlink:href="#mdd052bf3d1" x="368.826575" y="140.394293" style="fill: #1f77b4; fill-opacity: 0.6; stroke: #000000; stroke-opacity: 0.6; stroke-width: 0.4"/>
     <use xlink:href="#mdd052bf3d1" x="450.594889" y="100.424919" style="fill: #1f77b4; fill-opacity: 0.6; stroke: #000000; stroke-opacity: 0.6; stroke-width: 0.4"/>
     <use xlink:href="#mdd052bf3d1" x="362.440826" y="112.980599" style="fill: #1f77b4; fill-opacity: 0.6; stroke: #000000; stroke-opacity: 0.6; stroke-width: 0.4"/>
     <use xlink:href="#mdd052bf3d1" x="349.146642" y="118.256808" style="fill: #1f77b4; fill-opacity: 0.6; stroke: #000000; stroke-opacity: 0.6; stroke-width: 0.4"/>
     <use xlink:href="#mdd052bf3d1" x="392.418707" y="123.953854" style="fill: #1f77b4; fill-opacity: 0.6; stroke: #000000; stroke-opacity: 0.6; stroke-width: 0.4"/>
     <use xlink:href="#mdd052bf3d1" x="426.748811" y="79.328552" style="fill: #1f77b4; fill-opacity: 0.6; stroke: #000000; stroke-opacity: 0.6; stroke-width: 0.4"/>
     <use xlink:href="#mdd052bf3d1" x="388.519758" y="114.689592" style="fill: #1f77b4; fill-opacity: 0.6; stroke: #000000; stroke-opacity: 0.6; stroke-width: 0.4"/>
     <use xlink:href="#mdd052bf3d1" x="355.7325" y="122.404974" style="fill: #1f77b4; fill-opacity: 0.6; stroke: #000000; stroke-opacity: 0.6; stroke-width: 0.4"/>
     <use xlink:href="#mdd052bf3d1" x="322.543273" y="167.107963" style="fill: #1f77b4; fill-opacity: 0.6; stroke: #000000; stroke-opacity: 0.6; stroke-width: 0.4"/>
     <use xlink:href="#mdd052bf3d1" x="319.894932" y="132.825453" style="fill: #1f77b4; fill-opacity: 0.6; stroke: #000000; stroke-opacity: 0.6; stroke-width: 0.4"/>
     <use xlink:href="#mdd052bf3d1" x="403.525724" y="81.024684" style="fill: #1f77b4; fill-opacity: 0.6; stroke: #000000; stroke-opacity: 0.6; stroke-width: 0.4"/>
     <use xlink:href="#mdd052bf3d1" x="424.915628" y="79.051493" style="fill: #1f77b4; fill-opacity: 0.6; stroke: #000000; stroke-opacity: 0.6; stroke-width: 0.4"/>
     <use xlink:href="#mdd052bf3d1" x="374.232708" y="107.958321" style="fill: #1f77b4; fill-opacity: 0.6; stroke: #000000; stroke-opacity: 0.6; stroke-width: 0.4"/>
     <use xlink:href="#mdd052bf3d1" x="334.263285" y="203.579098" style="fill: #1f77b4; fill-opacity: 0.6; stroke: #000000; stroke-opacity: 0.6; stroke-width: 0.4"/>
     <use xlink:href="#mdd052bf3d1" x="419.791554" y="88.260607" style="fill: #1f77b4; fill-opacity: 0.6; stroke: #000000; stroke-opacity: 0.6; stroke-width: 0.4"/>
     <use xlink:href="#mdd052bf3d1" x="325.214683" y="144.576286" style="fill: #1f77b4; fill-opacity: 0.6; stroke: #000000; stroke-opacity: 0.6; stroke-width: 0.4"/>
     <use xlink:href="#mdd052bf3d1" x="350.131096" y="133.100251" style="fill: #1f77b4; fill-opacity: 0.6; stroke: #000000; stroke-opacity: 0.6; stroke-width: 0.4"/>
     <use xlink:href="#mdd052bf3d1" x="408.722885" y="109.484928" style="fill: #1f77b4; fill-opacity: 0.6; stroke: #000000; stroke-opacity: 0.6; stroke-width: 0.4"/>
     <use xlink:href="#mdd052bf3d1" x="282.624304" y="166.3601" style="fill: #1f77b4; fill-opacity: 0.6; stroke: #000000; stroke-opacity: 0.6; stroke-width: 0.4"/>
     <use xlink:href="#mdd052bf3d1" x="398.417357" y="97.300328" style="fill: #1f77b4; fill-opacity: 0.6; stroke: #000000; stroke-opacity: 0.6; stroke-width: 0.4"/>
     <use xlink:href="#mdd052bf3d1" x="355.903257" y="131.95282" style="fill: #1f77b4; fill-opacity: 0.6; stroke: #000000; stroke-opacity: 0.6; stroke-width: 0.4"/>
     <use xlink:href="#mdd052bf3d1" x="386.247831" y="118.854359" style="fill: #1f77b4; fill-opacity: 0.6; stroke: #000000; stroke-opacity: 0.6; stroke-width: 0.4"/>
     <use xlink:href="#mdd052bf3d1" x="378.123631" y="94.387424" style="fill: #1f77b4; fill-opacity: 0.6; stroke: #000000; stroke-opacity: 0.6; stroke-width: 0.4"/>
     <use xlink:href="#mdd052bf3d1" x="390.325043" y="127.590747" style="fill: #1f77b4; fill-opacity: 0.6; stroke: #000000; stroke-opacity: 0.6; stroke-width: 0.4"/>
     <use xlink:href="#mdd052bf3d1" x="411.935743" y="79.404235" style="fill: #1f77b4; fill-opacity: 0.6; stroke: #000000; stroke-opacity: 0.6; stroke-width: 0.4"/>
     <use xlink:href="#mdd052bf3d1" x="348.14149" y="128.657016" style="fill: #1f77b4; fill-opacity: 0.6; stroke: #000000; stroke-opacity: 0.6; stroke-width: 0.4"/>
     <use xlink:href="#mdd052bf3d1" x="443.856553" y="93.341641" style="fill: #1f77b4; fill-opacity: 0.6; stroke: #000000; stroke-opacity: 0.6; stroke-width: 0.4"/>
     <use xlink:href="#mdd052bf3d1" x="413.337721" y="101.164345" style="fill: #1f77b4; fill-opacity: 0.6; stroke: #000000; stroke-opacity: 0.6; stroke-width: 0.4"/>
     <use xlink:href="#mdd052bf3d1" x="418.504309" y="109.103021" style="fill: #1f77b4; fill-opacity: 0.6; stroke: #000000; stroke-opacity: 0.6; stroke-width: 0.4"/>
     <use xlink:href="#mdd052bf3d1" x="432.608092" y="74.219836" style="fill: #1f77b4; fill-opacity: 0.6; stroke: #000000; stroke-opacity: 0.6; stroke-width: 0.4"/>
     <use xlink:href="#mdd052bf3d1" x="416.038498" y="88.812753" style="fill: #1f77b4; fill-opacity: 0.6; stroke: #000000; stroke-opacity: 0.6; stroke-width: 0.4"/>
     <use xlink:href="#mdd052bf3d1" x="418.519505" y="102.898325" style="fill: #1f77b4; fill-opacity: 0.6; stroke: #000000; stroke-opacity: 0.6; stroke-width: 0.4"/>
     <use xlink:href="#mdd052bf3d1" x="384.76837" y="130.558987" style="fill: #1f77b4; fill-opacity: 0.6; stroke: #000000; stroke-opacity: 0.6; stroke-width: 0.4"/>
     <use xlink:href="#mdd052bf3d1" x="318.785816" y="142.490955" style="fill: #1f77b4; fill-opacity: 0.6; stroke: #000000; stroke-opacity: 0.6; stroke-width: 0.4"/>
     <use xlink:href="#mdd052bf3d1" x="375.517318" y="100.451665" style="fill: #1f77b4; fill-opacity: 0.6; stroke: #000000; stroke-opacity: 0.6; stroke-width: 0.4"/>
     <use xlink:href="#mdd052bf3d1" x="347.652017" y="133.881908" style="fill: #1f77b4; fill-opacity: 0.6; stroke: #000000; stroke-opacity: 0.6; stroke-width: 0.4"/>
     <use xlink:href="#mdd052bf3d1" x="318.962901" y="140.40474" style="fill: #1f77b4; fill-opacity: 0.6; stroke: #000000; stroke-opacity: 0.6; stroke-width: 0.4"/>
     <use xlink:href="#mdd052bf3d1" x="392.799372" y="113.801992" style="fill: #1f77b4; fill-opacity: 0.6; stroke: #000000; stroke-opacity: 0.6; stroke-width: 0.4"/>
     <use xlink:href="#mdd052bf3d1" x="356.478218" y="125.986916" style="fill: #1f77b4; fill-opacity: 0.6; stroke: #000000; stroke-opacity: 0.6; stroke-width: 0.4"/>
     <use xlink:href="#mdd052bf3d1" x="336.220336" y="143.12633" style="fill: #1f77b4; fill-opacity: 0.6; stroke: #000000; stroke-opacity: 0.6; stroke-width: 0.4"/>
     <use xlink:href="#mdd052bf3d1" x="335.640752" y="133.455431" style="fill: #1f77b4; fill-opacity: 0.6; stroke: #000000; stroke-opacity: 0.6; stroke-width: 0.4"/>
     <use xlink:href="#mdd052bf3d1" x="393.236994" y="132.906573" style="fill: #1f77b4; fill-opacity: 0.6; stroke: #000000; stroke-opacity: 0.6; stroke-width: 0.4"/>
     <use xlink:href="#mdd052bf3d1" x="397.200902" y="94.00254" style="fill: #1f77b4; fill-opacity: 0.6; stroke: #000000; stroke-opacity: 0.6; stroke-width: 0.4"/>
     <use xlink:href="#mdd052bf3d1" x="439.529448" y="85.895655" style="fill: #1f77b4; fill-opacity: 0.6; stroke: #000000; stroke-opacity: 0.6; stroke-width: 0.4"/>
     <use xlink:href="#mdd052bf3d1" x="380.837251" y="107.774064" style="fill: #1f77b4; fill-opacity: 0.6; stroke: #000000; stroke-opacity: 0.6; stroke-width: 0.4"/>
     <use xlink:href="#mdd052bf3d1" x="427.204984" y="94.481363" style="fill: #1f77b4; fill-opacity: 0.6; stroke: #000000; stroke-opacity: 0.6; stroke-width: 0.4"/>
     <use xlink:href="#mdd052bf3d1" x="443.034511" y="74.601011" style="fill: #1f77b4; fill-opacity: 0.6; stroke: #000000; stroke-opacity: 0.6; stroke-width: 0.4"/>
     <use xlink:href="#mdd052bf3d1" x="431.962554" y="104.386791" style="fill: #1f77b4; fill-opacity: 0.6; stroke: #000000; stroke-opacity: 0.6; stroke-width: 0.4"/>
     <use xlink:href="#mdd052bf3d1" x="277.566466" y="149.767441" style="fill: #1f77b4; fill-opacity: 0.6; stroke: #000000; stroke-opacity: 0.6; stroke-width: 0.4"/>
     <use xlink:href="#mdd052bf3d1" x="435.410994" y="113.27642" style="fill: #1f77b4; fill-opacity: 0.6; stroke: #000000; stroke-opacity: 0.6; stroke-width: 0.4"/>
     <use xlink:href="#mdd052bf3d1" x="396.364159" y="123.178213" style="fill: #1f77b4; fill-opacity: 0.6; stroke: #000000; stroke-opacity: 0.6; stroke-width: 0.4"/>
     <use xlink:href="#mdd052bf3d1" x="400.060006" y="99.417381" style="fill: #1f77b4; fill-opacity: 0.6; stroke: #000000; stroke-opacity: 0.6; stroke-width: 0.4"/>
     <use xlink:href="#mdd052bf3d1" x="397.752326" y="79.735815" style="fill: #1f77b4; fill-opacity: 0.6; stroke: #000000; stroke-opacity: 0.6; stroke-width: 0.4"/>
     <use xlink:href="#mdd052bf3d1" x="398.258702" y="99.672604" style="fill: #1f77b4; fill-opacity: 0.6; stroke: #000000; stroke-opacity: 0.6; stroke-width: 0.4"/>
     <use xlink:href="#mdd052bf3d1" x="395.47674" y="110.160118" style="fill: #1f77b4; fill-opacity: 0.6; stroke: #000000; stroke-opacity: 0.6; stroke-width: 0.4"/>
     <use xlink:href="#mdd052bf3d1" x="365.685238" y="146.445669" style="fill: #1f77b4; fill-opacity: 0.6; stroke: #000000; stroke-opacity: 0.6; stroke-width: 0.4"/>
     <use xlink:href="#mdd052bf3d1" x="297.930352" y="162.243904" style="fill: #1f77b4; fill-opacity: 0.6; stroke: #000000; stroke-opacity: 0.6; stroke-width: 0.4"/>
     <use xlink:href="#mdd052bf3d1" x="376.664939" y="116.5004" style="fill: #1f77b4; fill-opacity: 0.6; stroke: #000000; stroke-opacity: 0.6; stroke-width: 0.4"/>
     <use xlink:href="#mdd052bf3d1" x="346.14923" y="103.914634" style="fill: #1f77b4; fill-opacity: 0.6; stroke: #000000; stroke-opacity: 0.6; stroke-width: 0.4"/>
     <use xlink:href="#mdd052bf3d1" x="428.888123" y="77.146103" style="fill: #1f77b4; fill-opacity: 0.6; stroke: #000000; stroke-opacity: 0.6; stroke-width: 0.4"/>
     <use xlink:href="#mdd052bf3d1" x="368.766019" y="146.544574" style="fill: #1f77b4; fill-opacity: 0.6; stroke: #000000; stroke-opacity: 0.6; stroke-width: 0.4"/>
     <use xlink:href="#mdd052bf3d1" x="385.114529" y="76.987598" style="fill: #1f77b4; fill-opacity: 0.6; stroke: #000000; stroke-opacity: 0.6; stroke-width: 0.4"/>
     <use xlink:href="#mdd052bf3d1" x="344.134483" y="140.591935" style="fill: #1f77b4; fill-opacity: 0.6; stroke: #000000; stroke-opacity: 0.6; stroke-width: 0.4"/>
     <use xlink:href="#mdd052bf3d1" x="359.022316" y="140.760376" style="fill: #1f77b4; fill-opacity: 0.6; stroke: #000000; stroke-opacity: 0.6; stroke-width: 0.4"/>
     <use xlink:href="#mdd052bf3d1" x="380.941849" y="88.673689" style="fill: #1f77b4; fill-opacity: 0.6; stroke: #000000; stroke-opacity: 0.6; stroke-width: 0.4"/>
     <use xlink:href="#mdd052bf3d1" x="316.212101" y="149.887037" style="fill: #1f77b4; fill-opacity: 0.6; stroke: #000000; stroke-opacity: 0.6; stroke-width: 0.4"/>
     <use xlink:href="#mdd052bf3d1" x="394.654175" y="112.646128" style="fill: #1f77b4; fill-opacity: 0.6; stroke: #000000; stroke-opacity: 0.6; stroke-width: 0.4"/>
     <use xlink:href="#mdd052bf3d1" x="376.789778" y="112.36073" style="fill: #1f77b4; fill-opacity: 0.6; stroke: #000000; stroke-opacity: 0.6; stroke-width: 0.4"/>
     <use xlink:href="#mdd052bf3d1" x="329.372681" y="127.466408" style="fill: #1f77b4; fill-opacity: 0.6; stroke: #000000; stroke-opacity: 0.6; stroke-width: 0.4"/>
     <use xlink:href="#mdd052bf3d1" x="276.120258" y="153.894764" style="fill: #1f77b4; fill-opacity: 0.6; stroke: #000000; stroke-opacity: 0.6; stroke-width: 0.4"/>
     <use xlink:href="#mdd052bf3d1" x="403.981133" y="124.767572" style="fill: #1f77b4; fill-opacity: 0.6; stroke: #000000; stroke-opacity: 0.6; stroke-width: 0.4"/>
     <use xlink:href="#mdd052bf3d1" x="368.378762" y="86.572016" style="fill: #1f77b4; fill-opacity: 0.6; stroke: #000000; stroke-opacity: 0.6; stroke-width: 0.4"/>
     <use xlink:href="#mdd052bf3d1" x="358.170904" y="110.064947" style="fill: #1f77b4; fill-opacity: 0.6; stroke: #000000; stroke-opacity: 0.6; stroke-width: 0.4"/>
     <use xlink:href="#mdd052bf3d1" x="371.076683" y="125.669884" style="fill: #1f77b4; fill-opacity: 0.6; stroke: #000000; stroke-opacity: 0.6; stroke-width: 0.4"/>
     <use xlink:href="#mdd052bf3d1" x="461.226271" y="84.140127" style="fill: #1f77b4; fill-opacity: 0.6; stroke: #000000; stroke-opacity: 0.6; stroke-width: 0.4"/>
     <use xlink:href="#mdd052bf3d1" x="379.261159" y="131.281452" style="fill: #1f77b4; fill-opacity: 0.6; stroke: #000000; stroke-opacity: 0.6; stroke-width: 0.4"/>
     <use xlink:href="#mdd052bf3d1" x="385.252606" y="109.386003" style="fill: #1f77b4; fill-opacity: 0.6; stroke: #000000; stroke-opacity: 0.6; stroke-width: 0.4"/>
     <use xlink:href="#mdd052bf3d1" x="316.13754" y="160.134377" style="fill: #1f77b4; fill-opacity: 0.6; stroke: #000000; stroke-opacity: 0.6; stroke-width: 0.4"/>
     <use xlink:href="#mdd052bf3d1" x="453.79794" y="87.262347" style="fill: #1f77b4; fill-opacity: 0.6; stroke: #000000; stroke-opacity: 0.6; stroke-width: 0.4"/>
     <use xlink:href="#mdd052bf3d1" x="421.743572" y="77.804929" style="fill: #1f77b4; fill-opacity: 0.6; stroke: #000000; stroke-opacity: 0.6; stroke-width: 0.4"/>
     <use xlink:href="#mdd052bf3d1" x="428.307138" y="81.856206" style="fill: #1f77b4; fill-opacity: 0.6; stroke: #000000; stroke-opacity: 0.6; stroke-width: 0.4"/>
     <use xlink:href="#mdd052bf3d1" x="383.542112" y="119.15287" style="fill: #1f77b4; fill-opacity: 0.6; stroke: #000000; stroke-opacity: 0.6; stroke-width: 0.4"/>
     <use xlink:href="#mdd052bf3d1" x="421.706979" y="79.138626" style="fill: #1f77b4; fill-opacity: 0.6; stroke: #000000; stroke-opacity: 0.6; stroke-width: 0.4"/>
     <use xlink:href="#mdd052bf3d1" x="397.740004" y="81.371201" style="fill: #1f77b4; fill-opacity: 0.6; stroke: #000000; stroke-opacity: 0.6; stroke-width: 0.4"/>
     <use xlink:href="#mdd052bf3d1" x="408.379053" y="117.586727" style="fill: #1f77b4; fill-opacity: 0.6; stroke: #000000; stroke-opacity: 0.6; stroke-width: 0.4"/>
     <use xlink:href="#mdd052bf3d1" x="374.7642" y="127.487616" style="fill: #1f77b4; fill-opacity: 0.6; stroke: #000000; stroke-opacity: 0.6; stroke-width: 0.4"/>
     <use xlink:href="#mdd052bf3d1" x="316.71661" y="132.681928" style="fill: #1f77b4; fill-opacity: 0.6; stroke: #000000; stroke-opacity: 0.6; stroke-width: 0.4"/>
     <use xlink:href="#mdd052bf3d1" x="426.634677" y="76.719879" style="fill: #1f77b4; fill-opacity: 0.6; stroke: #000000; stroke-opacity: 0.6; stroke-width: 0.4"/>
     <use xlink:href="#mdd052bf3d1" x="296.466778" y="155.908871" style="fill: #1f77b4; fill-opacity: 0.6; stroke: #000000; stroke-opacity: 0.6; stroke-width: 0.4"/>
     <use xlink:href="#mdd052bf3d1" x="370.910579" y="99.458943" style="fill: #1f77b4; fill-opacity: 0.6; stroke: #000000; stroke-opacity: 0.6; stroke-width: 0.4"/>
     <use xlink:href="#mdd052bf3d1" x="372.465937" y="137.010622" style="fill: #1f77b4; fill-opacity: 0.6; stroke: #000000; stroke-opacity: 0.6; stroke-width: 0.4"/>
     <use xlink:href="#mdd052bf3d1" x="335.646942" y="163.703896" style="fill: #1f77b4; fill-opacity: 0.6; stroke: #000000; stroke-opacity: 0.6; stroke-width: 0.4"/>
     <use xlink:href="#mdd052bf3d1" x="408.376157" y="113.698633" style="fill: #1f77b4; fill-opacity: 0.6; stroke: #000000; stroke-opacity: 0.6; stroke-width: 0.4"/>
     <use xlink:href="#mdd052bf3d1" x="372.65008" y="116.25404" style="fill: #1f77b4; fill-opacity: 0.6; stroke: #000000; stroke-opacity: 0.6; stroke-width: 0.4"/>
     <use xlink:href="#mdd052bf3d1" x="362.261528" y="137.576344" style="fill: #1f77b4; fill-opacity: 0.6; stroke: #000000; stroke-opacity: 0.6; stroke-width: 0.4"/>
     <use xlink:href="#mdd052bf3d1" x="404.279326" y="109.455699" style="fill: #1f77b4; fill-opacity: 0.6; stroke: #000000; stroke-opacity: 0.6; stroke-width: 0.4"/>
     <use xlink:href="#mdd052bf3d1" x="360.517471" y="141.577239" style="fill: #1f77b4; fill-opacity: 0.6; stroke: #000000; stroke-opacity: 0.6; stroke-width: 0.4"/>
     <use xlink:href="#mdd052bf3d1" x="442.451053" y="90.968936" style="fill: #1f77b4; fill-opacity: 0.6; stroke: #000000; stroke-opacity: 0.6; stroke-width: 0.4"/>
     <use xlink:href="#mdd052bf3d1" x="396.883944" y="122.307761" style="fill: #1f77b4; fill-opacity: 0.6; stroke: #000000; stroke-opacity: 0.6; stroke-width: 0.4"/>
     <use xlink:href="#mdd052bf3d1" x="360.616116" y="118.620071" style="fill: #1f77b4; fill-opacity: 0.6; stroke: #000000; stroke-opacity: 0.6; stroke-width: 0.4"/>
     <use xlink:href="#mdd052bf3d1" x="296.058097" y="146.437328" style="fill: #1f77b4; fill-opacity: 0.6; stroke: #000000; stroke-opacity: 0.6; stroke-width: 0.4"/>
     <use xlink:href="#mdd052bf3d1" x="324.01309" y="152.992429" style="fill: #1f77b4; fill-opacity: 0.6; stroke: #000000; stroke-opacity: 0.6; stroke-width: 0.4"/>
     <use xlink:href="#mdd052bf3d1" x="429.180948" y="91.136909" style="fill: #1f77b4; fill-opacity: 0.6; stroke: #000000; stroke-opacity: 0.6; stroke-width: 0.4"/>
     <use xlink:href="#mdd052bf3d1" x="379.225888" y="124.681395" style="fill: #1f77b4; fill-opacity: 0.6; stroke: #000000; stroke-opacity: 0.6; stroke-width: 0.4"/>
     <use xlink:href="#mdd052bf3d1" x="369.013786" y="111.258753" style="fill: #1f77b4; fill-opacity: 0.6; stroke: #000000; stroke-opacity: 0.6; stroke-width: 0.4"/>
     <use xlink:href="#mdd052bf3d1" x="453.618423" y="72.791266" style="fill: #1f77b4; fill-opacity: 0.6; stroke: #000000; stroke-opacity: 0.6; stroke-width: 0.4"/>
     <use xlink:href="#mdd052bf3d1" x="325.115632" y="116.998479" style="fill: #1f77b4; fill-opacity: 0.6; stroke: #000000; stroke-opacity: 0.6; stroke-width: 0.4"/>
     <use xlink:href="#mdd052bf3d1" x="355.726835" y="146.23794" style="fill: #1f77b4; fill-opacity: 0.6; stroke: #000000; stroke-opacity: 0.6; stroke-width: 0.4"/>
     <use xlink:href="#mdd052bf3d1" x="360.692768" y="118.663069" style="fill: #1f77b4; fill-opacity: 0.6; stroke: #000000; stroke-opacity: 0.6; stroke-width: 0.4"/>
     <use xlink:href="#mdd052bf3d1" x="407.199748" y="91.980286" style="fill: #1f77b4; fill-opacity: 0.6; stroke: #000000; stroke-opacity: 0.6; stroke-width: 0.4"/>
    </g>
   </g>
   <g id="matplotlib.axis_1">
    <g id="xtick_1">
     <g id="line2d_1"/>
     <g id="text_1">
      <!-- −2 -->
      <g transform="translate(289.049642 221.824675) scale(0.08 -0.08)">
       <defs>
        <path id="ArialMT-2212" d="M 3381 1997 
L 356 1997 
L 356 2522 
L 3381 2522 
L 3381 1997 
z
" transform="scale(0.015625)"/>
        <path id="ArialMT-32" d="M 3222 541 
L 3222 0 
L 194 0 
Q 188 203 259 391 
Q 375 700 629 1000 
Q 884 1300 1366 1694 
Q 2113 2306 2375 2664 
Q 2638 3022 2638 3341 
Q 2638 3675 2398 3904 
Q 2159 4134 1775 4134 
Q 1369 4134 1125 3890 
Q 881 3647 878 3216 
L 300 3275 
Q 359 3922 746 4261 
Q 1134 4600 1788 4600 
Q 2447 4600 2831 4234 
Q 3216 3869 3216 3328 
Q 3216 3053 3103 2787 
Q 2991 2522 2730 2228 
Q 2469 1934 1863 1422 
Q 1356 997 1212 845 
Q 1069 694 975 541 
L 3222 541 
z
" transform="scale(0.015625)"/>
       </defs>
       <use xlink:href="#ArialMT-2212"/>
       <use xlink:href="#ArialMT-32" transform="translate(58.398438 0)"/>
      </g>
     </g>
    </g>
    <g id="xtick_2">
     <g id="line2d_2"/>
     <g id="text_2">
      <!-- −1 -->
      <g transform="translate(332.968694 221.824675) scale(0.08 -0.08)">
       <defs>
        <path id="ArialMT-31" d="M 2384 0 
L 1822 0 
L 1822 3584 
Q 1619 3391 1289 3197 
Q 959 3003 697 2906 
L 697 3450 
Q 1169 3672 1522 3987 
Q 1875 4303 2022 4600 
L 2384 4600 
L 2384 0 
z
" transform="scale(0.015625)"/>
       </defs>
       <use xlink:href="#ArialMT-2212"/>
       <use xlink:href="#ArialMT-31" transform="translate(58.398438 0)"/>
      </g>
     </g>
    </g>
    <g id="xtick_3">
     <g id="line2d_3"/>
     <g id="text_3">
      <!-- 0 -->
      <g transform="translate(379.223995 221.824675) scale(0.08 -0.08)">
       <defs>
        <path id="ArialMT-30" d="M 266 2259 
Q 266 3072 433 3567 
Q 600 4063 929 4331 
Q 1259 4600 1759 4600 
Q 2128 4600 2406 4451 
Q 2684 4303 2865 4023 
Q 3047 3744 3150 3342 
Q 3253 2941 3253 2259 
Q 3253 1453 3087 958 
Q 2922 463 2592 192 
Q 2263 -78 1759 -78 
Q 1097 -78 719 397 
Q 266 969 266 2259 
z
M 844 2259 
Q 844 1131 1108 757 
Q 1372 384 1759 384 
Q 2147 384 2411 759 
Q 2675 1134 2675 2259 
Q 2675 3391 2411 3762 
Q 2147 4134 1753 4134 
Q 1366 4134 1134 3806 
Q 844 3388 844 2259 
z
" transform="scale(0.015625)"/>
       </defs>
       <use xlink:href="#ArialMT-30"/>
      </g>
     </g>
    </g>
    <g id="xtick_4">
     <g id="line2d_4"/>
     <g id="text_4">
      <!-- 1 -->
      <g transform="translate(423.143047 221.824675) scale(0.08 -0.08)">
       <use xlink:href="#ArialMT-31"/>
      </g>
     </g>
    </g>
    <g id="xtick_5">
     <g id="line2d_5"/>
     <g id="text_5">
      <!-- 2 -->
      <g transform="translate(467.062098 221.824675) scale(0.08 -0.08)">
       <use xlink:href="#ArialMT-32"/>
      </g>
     </g>
    </g>
    <g id="text_6">
     <!-- x -->
     <g transform="translate(370.505906 233.856706) scale(0.09 -0.09)">
      <defs>
       <path id="ArialMT-78" d="M 47 0 
L 1259 1725 
L 138 3319 
L 841 3319 
L 1350 2541 
Q 1494 2319 1581 2169 
Q 1719 2375 1834 2534 
L 2394 3319 
L 3066 3319 
L 1919 1756 
L 3153 0 
L 2463 0 
L 1781 1031 
L 1600 1309 
L 728 0 
L 47 0 
z
" transform="scale(0.015625)"/>
      </defs>
      <use xlink:href="#ArialMT-78"/>
     </g>
    </g>
   </g>
   <g id="matplotlib.axis_2">
    <g id="ytick_1">
     <g id="line2d_6"/>
     <g id="text_7">
      <!-- −2 -->
      <g transform="translate(253.835443 184.666085) scale(0.08 -0.08)">
       <use xlink:href="#ArialMT-2212"/>
       <use xlink:href="#ArialMT-32" transform="translate(58.398438 0)"/>
      </g>
     </g>
    </g>
    <g id="ytick_2">
     <g id="line2d_7"/>
     <g id="text_8">
      <!-- −1 -->
      <g transform="translate(253.835443 150.544527) scale(0.08 -0.08)">
       <use xlink:href="#ArialMT-2212"/>
       <use xlink:href="#ArialMT-31" transform="translate(58.398438 0)"/>
      </g>
     </g>
    </g>
    <g id="ytick_3">
     <g id="line2d_8"/>
     <g id="text_9">
      <!-- 0 -->
      <g transform="translate(258.507943 116.422969) scale(0.08 -0.08)">
       <use xlink:href="#ArialMT-30"/>
      </g>
     </g>
    </g>
    <g id="ytick_4">
     <g id="line2d_9"/>
     <g id="text_10">
      <!-- 1 -->
      <g transform="translate(258.507943 82.301412) scale(0.08 -0.08)">
       <use xlink:href="#ArialMT-31"/>
      </g>
     </g>
    </g>
    <g id="ytick_5">
     <g id="line2d_10"/>
     <g id="text_11">
      <!-- 2 -->
      <g transform="translate(258.507943 48.179854) scale(0.08 -0.08)">
       <use xlink:href="#ArialMT-32"/>
      </g>
     </g>
    </g>
    <g id="text_12">
     <!-- y -->
     <g transform="translate(247.941224 115.635827) rotate(-90) scale(0.09 -0.09)">
      <defs>
       <path id="ArialMT-79" d="M 397 -1278 
L 334 -750 
Q 519 -800 656 -800 
Q 844 -800 956 -737 
Q 1069 -675 1141 -563 
Q 1194 -478 1313 -144 
Q 1328 -97 1363 -6 
L 103 3319 
L 709 3319 
L 1400 1397 
Q 1534 1031 1641 628 
Q 1738 1016 1872 1384 
L 2581 3319 
L 3144 3319 
L 1881 -56 
Q 1678 -603 1566 -809 
Q 1416 -1088 1222 -1217 
Q 1028 -1347 759 -1347 
Q 597 -1347 397 -1278 
z
" transform="scale(0.015625)"/>
      </defs>
      <use xlink:href="#ArialMT-79"/>
     </g>
    </g>
   </g>
   <g id="patch_3">
    <path d="M 266.456693 212.598425 
L 266.456693 14.173228 
" style="fill: none; stroke: #4c4c4c; stroke-width: 0.75; stroke-linejoin: miter; stroke-linecap: square"/>
   </g>
   <g id="patch_4">
    <path d="M 479.055118 212.598425 
L 479.055118 14.173228 
" style="fill: none; stroke: #4c4c4c; stroke-width: 0.75; stroke-linejoin: miter; stroke-linecap: square"/>
   </g>
   <g id="patch_5">
    <path d="M 266.456693 212.598425 
L 479.055118 212.598425 
" style="fill: none; stroke: #4c4c4c; stroke-width: 0.75; stroke-linejoin: miter; stroke-linecap: square"/>
   </g>
   <g id="patch_6">
    <path d="M 266.456693 14.173228 
L 479.055118 14.173228 
" style="fill: none; stroke: #4c4c4c; stroke-width: 0.75; stroke-linejoin: miter; stroke-linecap: square"/>
   </g>
   <g id="text_13">
    <!-- real publiplots panel -->
    <g transform="translate(328.284031 8.173228) scale(0.1 -0.1)">
     <defs>
      <path id="ArialMT-72" d="M 416 0 
L 416 3319 
L 922 3319 
L 922 2816 
Q 1116 3169 1280 3281 
Q 1444 3394 1641 3394 
Q 1925 3394 2219 3213 
L 2025 2691 
Q 1819 2813 1613 2813 
Q 1428 2813 1281 2702 
Q 1134 2591 1072 2394 
Q 978 2094 978 1738 
L 978 0 
L 416 0 
z
" transform="scale(0.015625)"/>
      <path id="ArialMT-65" d="M 2694 1069 
L 3275 997 
Q 3138 488 2766 206 
Q 2394 -75 1816 -75 
Q 1088 -75 661 373 
Q 234 822 234 1631 
Q 234 2469 665 2931 
Q 1097 3394 1784 3394 
Q 2450 3394 2872 2941 
Q 3294 2488 3294 1666 
Q 3294 1616 3291 1516 
L 816 1516 
Q 847 969 1125 678 
Q 1403 388 1819 388 
Q 2128 388 2347 550 
Q 2566 713 2694 1069 
z
M 847 1978 
L 2700 1978 
Q 2663 2397 2488 2606 
Q 2219 2931 1791 2931 
Q 1403 2931 1139 2672 
Q 875 2413 847 1978 
z
" transform="scale(0.015625)"/>
      <path id="ArialMT-61" d="M 2588 409 
Q 2275 144 1986 34 
Q 1697 -75 1366 -75 
Q 819 -75 525 192 
Q 231 459 231 875 
Q 231 1119 342 1320 
Q 453 1522 633 1644 
Q 813 1766 1038 1828 
Q 1203 1872 1538 1913 
Q 2219 1994 2541 2106 
Q 2544 2222 2544 2253 
Q 2544 2597 2384 2738 
Q 2169 2928 1744 2928 
Q 1347 2928 1158 2789 
Q 969 2650 878 2297 
L 328 2372 
Q 403 2725 575 2942 
Q 747 3159 1072 3276 
Q 1397 3394 1825 3394 
Q 2250 3394 2515 3294 
Q 2781 3194 2906 3042 
Q 3031 2891 3081 2659 
Q 3109 2516 3109 2141 
L 3109 1391 
Q 3109 606 3145 398 
Q 3181 191 3288 0 
L 2700 0 
Q 2613 175 2588 409 
z
M 2541 1666 
Q 2234 1541 1622 1453 
Q 1275 1403 1131 1340 
Q 988 1278 909 1158 
Q 831 1038 831 891 
Q 831 666 1001 516 
Q 1172 366 1500 366 
Q 1825 366 2078 508 
Q 2331 650 2450 897 
Q 2541 1088 2541 1459 
L 2541 1666 
z
" transform="scale(0.015625)"/>
      <path id="ArialMT-6c" d="M 409 0 
L 409 4581 
L 972 4581 
L 972 0 
L 409 0 
z
" transform="scale(0.015625)"/>
      <path id="ArialMT-20" transform="scale(0.015625)"/>
      <path id="ArialMT-70" d="M 422 -1272 
L 422 3319 
L 934 3319 
L 934 2888 
Q 1116 3141 1344 3267 
Q 1572 3394 1897 3394 
Q 2322 3394 2647 3175 
Q 2972 2956 3137 2557 
Q 3303 2159 3303 1684 
Q 3303 1175 3120 767 
Q 2938 359 2589 142 
Q 2241 -75 1856 -75 
Q 1575 -75 1351 44 
Q 1128 163 984 344 
L 984 -1272 
L 422 -1272 
z
M 931 1641 
Q 931 1000 1190 694 
Q 1450 388 1819 388 
Q 2194 388 2461 705 
Q 2728 1022 2728 1688 
Q 2728 2322 2467 2637 
Q 2206 2953 1844 2953 
Q 1484 2953 1207 2617 
Q 931 2281 931 1641 
z
" transform="scale(0.015625)"/>
      <path id="ArialMT-75" d="M 2597 0 
L 2597 488 
Q 2209 -75 1544 -75 
Q 1250 -75 995 37 
Q 741 150 617 320 
Q 494 491 444 738 
Q 409 903 409 1263 
L 409 3319 
L 972 3319 
L 972 1478 
Q 972 1038 1006 884 
Q 1059 663 1231 536 
Q 1403 409 1656 409 
Q 1909 409 2131 539 
Q 2353 669 2445 892 
Q 2538 1116 2538 1541 
L 2538 3319 
L 3100 3319 
L 3100 0 
L 2597 0 
z
" transform="scale(0.015625)"/>
      <path id="ArialMT-62" d="M 941 0 
L 419 0 
L 419 4581 
L 981 4581 
L 981 2947 
Q 1338 3394 1891 3394 
Q 2197 3394 2470 3270 
Q 2744 3147 2920 2923 
Q 3097 2700 3197 2384 
Q 3297 2069 3297 1709 
Q 3297 856 2875 390 
Q 2453 -75 1863 -75 
Q 1275 -75 941 416 
L 941 0 
z
M 934 1684 
Q 934 1088 1097 822 
Q 1363 388 1816 388 
Q 2184 388 2453 708 
Q 2722 1028 2722 1663 
Q 2722 2313 2464 2622 
Q 2206 2931 1841 2931 
Q 1472 2931 1203 2611 
Q 934 2291 934 1684 
z
" transform="scale(0.015625)"/>
      <path id="ArialMT-69" d="M 425 3934 
L 425 4581 
L 988 4581 
L 988 3934 
L 425 3934 
z
M 425 0 
L 425 3319 
L 988 3319 
L 988 0 
L 425 0 
z
" transform="scale(0.015625)"/>
      <path id="ArialMT-6f" d="M 213 1659 
Q 213 2581 725 3025 
Q 1153 3394 1769 3394 
Q 2453 3394 2887 2945 
Q 3322 2497 3322 1706 
Q 3322 1066 3130 698 
Q 2938 331 2570 128 
Q 2203 -75 1769 -75 
Q 1072 -75 642 372 
Q 213 819 213 1659 
z
M 791 1659 
Q 791 1022 1069 705 
Q 1347 388 1769 388 
Q 2188 388 2466 706 
Q 2744 1025 2744 1678 
Q 2744 2294 2464 2611 
Q 2184 2928 1769 2928 
Q 1347 2928 1069 2612 
Q 791 2297 791 1659 
z
" transform="scale(0.015625)"/>
      <path id="ArialMT-74" d="M 1650 503 
L 1731 6 
Q 1494 -44 1306 -44 
Q 1000 -44 831 53 
Q 663 150 594 308 
Q 525 466 525 972 
L 525 2881 
L 113 2881 
L 113 3319 
L 525 3319 
L 525 4141 
L 1084 4478 
L 1084 3319 
L 1650 3319 
L 1650 2881 
L 1084 2881 
L 1084 941 
Q 1084 700 1114 631 
Q 1144 563 1211 522 
Q 1278 481 1403 481 
Q 1497 481 1650 503 
z
" transform="scale(0.015625)"/>
      <path id="ArialMT-73" d="M 197 991 
L 753 1078 
Q 800 744 1014 566 
Q 1228 388 1613 388 
Q 2000 388 2187 545 
Q 2375 703 2375 916 
Q 2375 1106 2209 1216 
Q 2094 1291 1634 1406 
Q 1016 1563 777 1677 
Q 538 1791 414 1992 
Q 291 2194 291 2438 
Q 291 2659 392 2848 
Q 494 3038 669 3163 
Q 800 3259 1026 3326 
Q 1253 3394 1513 3394 
Q 1903 3394 2198 3281 
Q 2494 3169 2634 2976 
Q 2775 2784 2828 2463 
L 2278 2388 
Q 2241 2644 2061 2787 
Q 1881 2931 1553 2931 
Q 1166 2931 1000 2803 
Q 834 2675 834 2503 
Q 834 2394 903 2306 
Q 972 2216 1119 2156 
Q 1203 2125 1616 2013 
Q 2213 1853 2448 1751 
Q 2684 1650 2818 1456 
Q 2953 1263 2953 975 
Q 2953 694 2789 445 
Q 2625 197 2315 61 
Q 2006 -75 1616 -75 
Q 969 -75 630 194 
Q 291 463 197 991 
z
" transform="scale(0.015625)"/>
      <path id="ArialMT-6e" d="M 422 0 
L 422 3319 
L 928 3319 
L 928 2847 
Q 1294 3394 1984 3394 
Q 2284 3394 2536 3286 
Q 2788 3178 2913 3003 
Q 3038 2828 3088 2588 
Q 3119 2431 3119 2041 
L 3119 0 
L 2556 0 
L 2556 2019 
Q 2556 2363 2490 2533 
Q 2425 2703 2258 2804 
Q 2091 2906 1866 2906 
Q 1506 2906 1245 2678 
Q 984 2450 984 1813 
L 984 0 
L 422 0 
z
" transform="scale(0.015625)"/>
     </defs>
     <use xlink:href="#ArialMT-72"/>
     <use xlink:href="#ArialMT-65" transform="translate(33.300781 0)"/>
     <use xlink:href="#ArialMT-61" transform="translate(88.916016 0)"/>
     <use xlink:href="#ArialMT-6c" transform="translate(144.53125 0)"/>
     <use xlink:href="#ArialMT-20" transform="translate(166.748047 0)"/>
     <use xlink:href="#ArialMT-70" transform="translate(194.53125 0)"/>
     <use xlink:href="#ArialMT-75" transform="translate(250.146484 0)"/>
     <use xlink:href="#ArialMT-62" transform="translate(305.761719 0)"/>
     <use xlink:href="#ArialMT-6c" transform="translate(361.376953 0)"/>
     <use xlink:href="#ArialMT-69" transform="translate(383.59375 0)"/>
     <use xlink:href="#ArialMT-70" transform="translate(405.810547 0)"/>
     <use xlink:href="#ArialMT-6c" transform="translate(461.425781 0)"/>
     <use xlink:href="#ArialMT-6f" transform="translate(483.642578 0)"/>
     <use xlink:href="#ArialMT-74" transform="translate(539.257812 0)"/>
     <use xlink:href="#ArialMT-73" transform="translate(567.041016 0)"/>
     <use xlink:href="#ArialMT-20" transform="translate(617.041016 0)"/>
     <use xlink:href="#ArialMT-70" transform="translate(644.824219 0)"/>
     <use xlink:href="#ArialMT-61" transform="translate(700.439453 0)"/>
     <use xlink:href="#ArialMT-6e" transform="translate(756.054688 0)"/>
     <use xlink:href="#ArialMT-65" transform="translate(811.669922 0)"/>
     <use xlink:href="#ArialMT-6c" transform="translate(867.285156 0)"/>
    </g>
   </g>
  </g>
  <g id="axes_2"/>
 </g>
 <defs>
  <clipPath id="pb96ee5767b">
   <rect x="266.456693" y="14.173228" width="212.598425" height="198.425197"/>
  </clipPath>
 </defs>
</svg>
